<svg xmlns="http://www.w3.org/2000/svg" width="150" viewBox="0 0 150 150" height="150" version="1.0"><defs><clipPath id="a"><path d="M 68 90.492188 L 124.875 90.492188 L 124.875 149.945312 L 68 149.945312 Z M 68 90.492188"/></clipPath></defs><path fill="#454E63" d="M 62.457031 5.25 C 62.910156 5.234375 63.40625 5.269531 63.957031 5.335938 C 65.859375 5.582031 67.765625 5.820312 69.671875 6.058594 C 72.964844 6.476562 76.253906 6.890625 79.542969 7.308594 C 79.550781 7.308594 79.558594 7.308594 79.566406 7.308594 C 82.214844 7.648438 84.339844 11.167969 82.820312 13.515625 C 80.210938 17.550781 74.109375 15.394531 70.25 14.824219 C 68.628906 14.59375 66.996094 14.441406 65.367188 14.234375 C 63.902344 14.046875 61.882812 14.011719 60.546875 13.34375 C 56.890625 11.515625 58.53125 5.394531 62.457031 5.25"/><path fill="#454E63" d="M 112.296875 21.273438 L 110.921875 28.742188 C 110.921875 28.742188 108.859375 23.828125 108.957031 23.433594 C 109.054688 23.042969 109.9375 19.699219 109.9375 19.699219 L 111.414062 18.914062 L 112.296875 21.273438"/><path fill="#EBD3D0" d="M 80.28125 11.996094 C 80.28125 12.792969 79.632812 13.4375 78.839844 13.4375 C 78.042969 13.4375 77.398438 12.792969 77.398438 11.996094 C 77.398438 11.199219 78.042969 10.554688 78.839844 10.554688 C 79.632812 10.554688 80.28125 11.199219 80.28125 11.996094"/><path fill="#161A26" d="M 76.378906 11.375 C 76.378906 11.773438 76.058594 12.09375 75.660156 12.09375 C 75.261719 12.09375 74.941406 11.773438 74.941406 11.375 C 74.941406 10.976562 75.261719 10.652344 75.660156 10.652344 C 76.058594 10.652344 76.378906 10.976562 76.378906 11.375"/><path fill="#161A26" d="M 62.160156 6.132812 C 65.011719 6.523438 68.140625 6.605469 70.925781 7.332031 C 72.601562 7.769531 73.386719 9.785156 72.578125 11.375 C 71.171875 14.152344 68.347656 13.3125 65.820312 13.027344 C 63.199219 12.730469 58.007812 12.421875 59.308594 8.195312 C 60.09375 5.640625 62.160156 6.132812 62.160156 6.132812"/><path fill="#6B7287" d="M 62.71875 6.65625 C 65.152344 6.988281 67.832031 7.058594 70.207031 7.679688 C 71.644531 8.054688 72.3125 9.777344 71.625 11.136719 C 70.417969 13.511719 68.007812 12.792969 65.847656 12.546875 C 63.605469 12.292969 59.167969 12.03125 60.28125 8.417969 C 60.953125 6.234375 62.71875 6.65625 62.71875 6.65625"/><g clip-path="url(#a)"><path fill="#E29788" d="M 68.058594 115.851562 L 78.839844 149.945312 L 124.882812 149.945312 L 96.46875 90.546875 L 78.839844 94.746094 L 68.058594 115.851562"/></g><path fill="#B7D3EE" d="M 82.820312 13.515625 C 80.210938 17.550781 74.109375 15.394531 70.25 14.824219 C 68.628906 14.59375 66.996094 14.441406 65.367188 14.234375 C 63.902344 14.046875 61.882812 14.011719 60.546875 13.34375 C 56.890625 11.515625 58.53125 5.394531 62.457031 5.25 C 62.910156 5.234375 63.40625 5.269531 63.957031 5.335938 C 65.859375 5.582031 67.765625 5.820312 69.671875 6.058594 C 72.964844 6.476562 76.253906 6.890625 79.542969 7.308594 C 79.550781 7.308594 79.558594 7.308594 79.566406 7.308594 C 82.214844 7.648438 84.339844 11.167969 82.820312 13.515625 Z M 103.058594 6.523438 L 85.65625 4.261719 L 63.929688 1.609375 C 63.929688 1.609375 55.867188 0.0351562 54.292969 10.949219 L 50.558594 35.722656 L 40.039062 104.542969 C 40.039062 104.542969 38.957031 113 46.527344 114.472656 L 84.871094 122.023438 C 84.871094 122.023438 95.488281 124.109375 96.46875 115.75 L 107.578125 48.800781 L 110.921875 28.742188 C 110.921875 28.742188 110.628906 22.058594 112.296875 21.273438 L 112.988281 16.0625 C 112.988281 16.0625 113.183594 7.3125 103.058594 6.523438"/><path fill="#E29788" d="M 40.964844 34.992188 C 42.546875 34.15625 44.300781 34.382812 46.101562 34.117188 C 46.101562 34.117188 49.640625 33.59375 51.738281 36.476562 C 51.738281 36.476562 60.097656 43.660156 60.125 43.6875 C 61.640625 44.988281 63.027344 47.464844 63.550781 49.34375 C 65.636719 56.902344 53.722656 53.453125 50.6875 51.945312 C 48.125 50.5625 45.230469 49.6875 43.195312 47.507812 C 41.953125 46.171875 41.328125 44.300781 39.777344 43.246094 C 38.421875 42.320312 37.507812 41.824219 37.757812 40.078125 C 38.011719 38.328125 38.832031 36.574219 40.242188 35.464844 C 40.480469 35.277344 40.71875 35.125 40.964844 34.992188"/><path fill="#E29788" d="M 30.894531 45.785156 C 30.894531 45.785156 35.351562 41.160156 42.167969 44.191406 L 54.753906 56.925781 C 56.207031 58.066406 57.65625 59.203125 59.109375 60.339844 C 62.40625 62.921875 65.183594 65.03125 66.113281 69.332031 C 66.945312 73.1875 64.46875 74.820312 60.78125 74.492188 C 62.785156 75.492188 65.300781 75.988281 66.960938 77.574219 C 68.078125 78.644531 68.578125 80.464844 68.816406 81.972656 C 69.046875 83.445312 68.972656 85.058594 67.96875 86.25 C 66.867188 87.5625 63.589844 88.691406 61.960938 87.996094 C 61.960938 87.992188 57.375 86.027344 57.375 86.027344 L 60.652344 89.175781 C 60.652344 89.175781 60.390625 96.515625 55.40625 95.859375 L 42.167969 92.449219 L 41.511719 95.902344 C 41.511719 95.902344 36.804688 88.933594 36.792969 88.914062 C 36.714844 88.796875 35.734375 88.714844 35.582031 88.675781 C 34.53125 88.390625 33.527344 87.902344 32.652344 87.253906 C 30.660156 85.78125 28.628906 82.75 28.941406 80.164062 C 29.238281 77.703125 32.300781 74.296875 34.957031 74.886719 C 34.957031 74.886719 26.308594 69.90625 27.617188 64.003906 C 27.617188 64.003906 30.109375 59.023438 35.613281 58.894531 C 35.613281 58.894531 25.125 54.304688 30.894531 45.785156"/><path fill="#E29788" d="M 116.101562 31.890625 C 116.101562 31.890625 108.105469 29.820312 107.316406 42.980469 C 107.316406 42.980469 105.613281 52.117188 106.792969 53.558594 L 106.398438 55.339844 L 102.746094 79.566406 C 102.746094 79.566406 116.101562 52.996094 116.886719 52.996094 C 117.671875 52.996094 117.9375 49.71875 117.9375 48.667969 C 117.9375 47.621094 117.9375 43.160156 117.9375 43.160156 L 117.9375 31.769531 L 116.101562 31.890625"/><path fill="#B67368" d="M 39.132812 42.980469 C 39.289062 42.996094 39.445312 43.027344 39.59375 43.085938 C 39.742188 43.144531 39.886719 43.214844 40.019531 43.308594 C 40.152344 43.398438 40.277344 43.503906 40.390625 43.617188 C 40.507812 43.730469 40.613281 43.851562 40.710938 43.976562 C 40.90625 44.234375 41.074219 44.511719 41.21875 44.792969 C 41.367188 45.074219 41.492188 45.359375 41.628906 45.632812 C 41.765625 45.90625 41.910156 46.171875 42.070312 46.414062 C 42.234375 46.65625 42.421875 46.875 42.644531 47.050781 C 43.085938 47.410156 43.640625 47.648438 44.214844 47.898438 C 44.785156 48.15625 45.347656 48.425781 45.90625 48.714844 C 46.457031 49.011719 47.007812 49.3125 47.539062 49.640625 C 48.609375 50.292969 49.636719 51.011719 50.589844 51.816406 C 49.503906 51.199219 48.421875 50.59375 47.324219 50.019531 C 46.773438 49.738281 46.226562 49.453125 45.667969 49.1875 C 45.113281 48.917969 44.550781 48.65625 43.984375 48.40625 C 43.703125 48.28125 43.414062 48.152344 43.128906 48 C 42.84375 47.851562 42.558594 47.675781 42.300781 47.453125 C 42.046875 47.230469 41.832031 46.960938 41.660156 46.679688 C 41.574219 46.539062 41.496094 46.394531 41.425781 46.25 C 41.355469 46.105469 41.292969 45.957031 41.234375 45.8125 L 40.886719 44.945312 C 40.777344 44.660156 40.644531 44.390625 40.488281 44.132812 C 40.332031 43.875 40.148438 43.632812 39.925781 43.429688 C 39.703125 43.226562 39.433594 43.066406 39.132812 42.980469"/><path fill="#B67368" d="M 35.496094 58.585938 C 37.34375 60.398438 39.328125 62.042969 41.425781 63.539062 L 43.011719 64.636719 L 44.636719 65.679688 L 46.289062 66.679688 L 47.964844 67.632812 L 49.664062 68.554688 L 51.382812 69.4375 L 53.113281 70.304688 C 53.695312 70.582031 54.273438 70.863281 54.855469 71.148438 C 57.183594 72.257812 59.535156 73.332031 61.867188 74.449219 C 59.441406 73.546875 57.042969 72.585938 54.671875 71.542969 C 54.082031 71.28125 53.488281 71.015625 52.902344 70.746094 L 51.144531 69.914062 C 50.566406 69.625 49.988281 69.328125 49.410156 69.035156 L 47.695312 68.121094 L 46.011719 67.148438 C 45.457031 66.808594 44.902344 66.46875 44.355469 66.125 C 43.8125 65.765625 43.277344 65.402344 42.738281 65.039062 C 42.207031 64.664062 41.6875 64.273438 41.164062 63.890625 C 39.101562 62.316406 37.171875 60.554688 35.496094 58.585938"/><path fill="#B67368" d="M 35.160156 74.628906 L 41.566406 77.949219 C 42.101562 78.222656 42.636719 78.496094 43.171875 78.773438 L 46.382812 80.40625 L 47.996094 81.210938 L 49.609375 82.011719 L 51.226562 82.804688 L 52.847656 83.59375 C 53.390625 83.851562 53.929688 84.113281 54.46875 84.378906 L 60.980469 87.492188 C 58.71875 86.660156 56.492188 85.746094 54.289062 84.773438 C 53.738281 84.53125 53.1875 84.289062 52.640625 84.039062 L 51 83.28125 L 49.371094 82.503906 L 47.75 81.707031 L 46.136719 80.890625 L 44.535156 80.058594 L 42.941406 79.207031 C 42.414062 78.917969 41.886719 78.625 41.363281 78.332031 C 39.261719 77.15625 37.1875 75.933594 35.160156 74.628906"/><path fill="#B67368" d="M 36.414062 88.769531 C 36.847656 89.140625 37.34375 89.339844 37.859375 89.535156 C 38.117188 89.628906 38.378906 89.722656 38.640625 89.828125 C 38.90625 89.9375 39.164062 90.058594 39.417969 90.1875 C 39.921875 90.453125 40.402344 90.765625 40.847656 91.117188 C 41.292969 91.476562 41.703125 91.871094 42.046875 92.328125 C 41.550781 92.046875 41.078125 91.757812 40.601562 91.480469 C 40.121094 91.203125 39.644531 90.9375 39.160156 90.683594 C 38.914062 90.554688 38.671875 90.433594 38.425781 90.3125 C 38.179688 90.1875 37.925781 90.070312 37.675781 89.929688 C 37.425781 89.789062 37.175781 89.636719 36.953125 89.445312 C 36.734375 89.253906 36.539062 89.027344 36.414062 88.769531"/><path fill="#89A3D8" d="M 54.714844 45.910156 C 54.046875 46.597656 53.855469 47.902344 53.871094 48.78125 C 53.894531 50.246094 54.6875 51.445312 55.941406 52.179688 C 59.660156 54.359375 62.824219 54.96875 62.824219 54.96875 C 62.824219 54.96875 63.496094 55.4375 64.464844 54.417969 C 65.433594 53.402344 65.992188 52.476562 65.992188 52.476562 C 65.992188 52.476562 66.28125 51.648438 65.644531 50.855469 C 64.605469 49.5625 63.523438 48.328125 62.21875 47.292969 C 61.226562 46.507812 60.132812 45.835938 58.9375 45.410156 C 57.460938 44.882812 56.554688 44.925781 55.160156 45.585938 C 54.992188 45.664062 54.84375 45.777344 54.714844 45.910156"/><path fill="#89A3D8" d="M 59.316406 66.824219 C 59.316406 66.824219 56.136719 70.078125 59.316406 72 C 62.5 73.925781 65.347656 75.082031 65.347656 75.082031 C 65.347656 75.082031 66.984375 75.289062 68.230469 74.105469 C 69.476562 72.917969 69.476562 72.460938 69.476562 72.460938 C 69.476562 72.460938 69.871094 71.609375 68.953125 70.429688 C 68.035156 69.25 65.019531 65.972656 62.921875 65.511719 C 60.824219 65.054688 59.90625 66.085938 59.316406 66.824219"/><path fill="#89A3D8" d="M 59.273438 80.589844 C 59.273438 80.589844 57.4375 84.191406 60.390625 85.503906 C 63.339844 86.8125 67.730469 87.863281 67.730469 87.863281 C 67.730469 87.863281 69.566406 88.320312 70.21875 87.011719 C 70.875 85.699219 71.136719 85.308594 71.136719 85.308594 C 71.136719 85.308594 71.925781 84.324219 70.613281 82.949219 C 69.304688 81.570312 64.523438 78.6875 61.867188 78.753906 C 59.210938 78.820312 59.273438 80.589844 59.273438 80.589844"/><path fill="#89A3D8" d="M 54.554688 89.699219 C 54.554688 89.699219 53.113281 92.84375 55.933594 93.761719 C 58.730469 94.671875 60.363281 94.746094 60.386719 94.746094 C 62.242188 94.824219 64.980469 92.722656 63.097656 90.878906 C 61.960938 89.761719 57.703125 87.429688 56.0625 87.941406 L 54.554688 89.699219"/><path fill="#89A3D8" d="M 115.445312 42.980469 L 117.9375 42.980469 L 117.9375 29.960938 C 117.9375 29.960938 115.183594 27.078125 113.347656 29.960938 L 113.871094 42.980469 L 115.445312 42.980469"/></svg>