<svg xmlns="http://www.w3.org/2000/svg" width="41.25" viewBox="0 0 41.25 41.25" height="41.25" version="1.0"><defs><clipPath id="a"><path d="M 0 4.457031 L 40 4.457031 L 40 36 L 0 36 Z M 0 4.457031"/></clipPath><clipPath id="b"><path d="M 10 4.457031 L 28 4.457031 L 28 18 L 10 18 Z M 10 4.457031"/></clipPath><clipPath id="c"><path d="M 11 4.457031 L 28 4.457031 L 28 19 L 11 19 Z M 11 4.457031"/></clipPath></defs><g clip-path="url(#a)"><path fill="#A35A24" d="M 4 34.574219 C 5.101562 34.910156 6.214844 35.125 7.363281 35.230469 C 9.015625 35.378906 10.671875 35.4375 12.328125 35.460938 C 12.820312 35.464844 13.308594 35.46875 13.800781 35.464844 C 18.425781 35.429688 33.4375 36.132812 36.519531 34.273438 C 40.429688 31.914062 40.234375 26.421875 36.921875 23.648438 C 36.175781 23.027344 34.921875 22.242188 33.925781 22.164062 C 34.34375 20.105469 34.15625 18.371094 32.871094 16.574219 C 31.8125 15.09375 28.890625 13.890625 27.195312 15.078125 C 27.347656 13.839844 27.496094 12.738281 27.304688 11.46875 C 27.082031 9.980469 26.199219 8.53125 25.253906 7.363281 C 23.625 5.351562 21.1875 4.460938 18.628906 4.652344 C 21.460938 6.550781 20.351562 10.875 17.347656 11.9375 C 15.992188 12.414062 14.464844 12.402344 13.203125 13.230469 C 12.542969 13.664062 11.996094 14.25 11.597656 14.929688 C 11.414062 15.242188 11.253906 15.585938 11.203125 15.945312 C 11.183594 16.078125 11.226562 16.984375 11.476562 16.964844 C 9.75 17.09375 7.851562 17.714844 6.726562 19.132812 C 5.746094 20.367188 4.800781 23.082031 6.484375 24.140625 C 5.304688 23.945312 4.425781 24.292969 3.582031 24.820312 C 1.257812 26.265625 0.0820312 29.199219 0.960938 31.964844 C 1.375 33.273438 2.347656 34.027344 3.613281 34.449219 C 3.742188 34.492188 3.871094 34.535156 4 34.574219"/></g><path fill="#AE6622" d="M 9.0625 27.3125 C 12.046875 27.570312 14.980469 28.296875 17.976562 28.414062 C 20.234375 28.5 22.53125 28.269531 24.683594 27.554688 C 25.28125 27.355469 25.867188 27.121094 26.433594 26.84375 C 26.207031 26.953125 25.703125 26.875 25.449219 26.878906 C 25.121094 26.882812 24.792969 26.882812 24.464844 26.882812 C 23.78125 26.878906 23.09375 26.882812 22.40625 26.882812 C 21 26.886719 19.589844 26.894531 18.183594 26.859375 C 17.394531 26.835938 16.609375 26.800781 15.820312 26.746094 C 13.503906 26.582031 11.230469 26.109375 8.925781 25.839844 C 8.257812 25.761719 7.589844 25.699219 6.917969 25.671875 C 5.847656 25.628906 4.523438 25.554688 3.5625 26.121094 C 2.933594 26.492188 2.429688 27.039062 2.003906 27.648438 C 4.320312 27.1875 6.691406 27.105469 9.0625 27.3125"/><g clip-path="url(#b)"><path fill="#A35A24" d="M 11.476562 16.964844 C 11.035156 16.996094 10.582031 17.0625 10.132812 17.164062 C 11.785156 16.941406 13.539062 17.144531 15.277344 17.453125 C 17.746094 17.890625 20.46875 17.847656 22.898438 17.195312 C 24.03125 16.894531 25.214844 16.535156 26.171875 15.820312 C 26.660156 15.457031 26.980469 15.042969 27.257812 14.589844 C 27.382812 13.542969 27.472656 12.570312 27.304688 11.46875 C 27.082031 9.980469 26.199219 8.53125 25.253906 7.363281 C 23.625 5.351562 21.1875 4.460938 18.628906 4.652344 C 21.460938 6.550781 20.351562 10.875 17.347656 11.9375 C 15.992188 12.414062 14.464844 12.402344 13.203125 13.230469 C 12.542969 13.664062 11.996094 14.25 11.597656 14.929688 C 11.414062 15.242188 11.253906 15.585938 11.203125 15.945312 C 11.183594 16.078125 11.226562 16.984375 11.476562 16.964844"/></g><path fill="#AE6622" d="M 7.542969 19.1875 C 9.386719 19.292969 11.222656 19.078125 13.070312 19.453125 C 15.382812 19.917969 17.742188 20.328125 20.109375 20.285156 C 21.226562 20.269531 23.527344 20.101562 25.90625 18.121094 C 26.734375 17.429688 27.035156 16.527344 27.09375 16.472656 C 27.046875 16.496094 23.71875 18.878906 19.414062 18.746094 C 15.523438 18.628906 10.976562 16.9375 7.542969 19.1875"/><g clip-path="url(#c)"><path fill="#974F27" d="M 20.050781 18.03125 C 26.394531 17.472656 26.984375 15.445312 27.195312 15.078125 C 27.378906 13.78125 27.46875 12.550781 27.304688 11.46875 C 27.082031 9.980469 26.199219 8.53125 25.253906 7.363281 C 23.785156 5.546875 21.65625 4.648438 19.375 4.628906 C 21.875 5.742188 24.320312 7.335938 24.890625 10.277344 C 25.265625 12.214844 24.9375 14.113281 22.933594 15.171875 C 19.082031 17.207031 12.714844 16.386719 11.203125 15.945312 C 11.128906 15.921875 11.203125 16.90625 11.476562 16.964844 C 15.589844 18.316406 18.453125 18.175781 20.050781 18.03125"/></g><path fill="#AE6622" d="M 18.253906 13.472656 C 20.367188 13.429688 23.074219 12.925781 22.707031 10.15625 C 22.53125 8.847656 21.972656 7.542969 20.964844 6.695312 C 20.8125 6.609375 20.65625 6.527344 20.5 6.445312 C 21.582031 8.5625 20.394531 11.511719 17.984375 12.363281 C 16.628906 12.84375 15.101562 12.828125 13.839844 13.65625 C 13.578125 13.832031 13.339844 14.03125 13.113281 14.25 C 13.175781 14.304688 13.246094 14.355469 13.316406 14.398438 C 14.6875 13.515625 16.472656 13.503906 18.253906 13.472656"/><path fill="#974F27" d="M 11.9375 25.226562 C 15.234375 25.375 18.742188 25.664062 22.019531 25.527344 C 25.0625 25.40625 27.707031 25.640625 31.167969 24.394531 C 31.996094 24.097656 33.429688 23.230469 33.972656 22.171875 C 33.957031 22.167969 33.941406 22.164062 33.925781 22.164062 C 34.34375 20.105469 34.15625 18.371094 32.871094 16.574219 C 31.996094 15.355469 29.863281 14.328125 28.191406 14.664062 C 29.546875 14.949219 30.386719 15.550781 31.113281 16.925781 C 31.746094 18.121094 31.808594 19.609375 31.421875 20.875 C 30.550781 23.710938 26.289062 23.96875 23.882812 24.039062 C 8.511719 24.472656 5.5625 22.292969 5.5625 22.292969 C 5.5625 23.242188 6.027344 23.890625 6.484375 24.140625 C 8.125 25.03125 9.726562 25.132812 11.9375 25.226562"/><path fill="#974F27" d="M 36.921875 23.648438 C 36.292969 23.125 35.304688 22.488281 34.410156 22.253906 C 36.585938 24.753906 35.992188 30.15625 33.339844 31.925781 C 31.585938 33.09375 29.425781 33.414062 27.355469 33.492188 C 24.375 33.605469 21.378906 33.523438 18.398438 33.523438 C 13.816406 33.523438 2.035156 34.335938 0.953125 28.246094 C 0.589844 29.414062 0.558594 30.707031 0.960938 31.964844 C 1.375 33.273438 2.347656 34.027344 3.613281 34.449219 C 3.742188 34.492188 3.871094 34.535156 4 34.574219 C 5.101562 34.910156 6.214844 35.125 7.363281 35.230469 C 9.015625 35.378906 10.671875 35.4375 12.328125 35.460938 C 12.820312 35.464844 13.308594 35.46875 13.800781 35.464844 C 18.425781 35.429688 33.4375 36.132812 36.519531 34.273438 C 40.429688 31.914062 40.234375 26.421875 36.921875 23.648438"/></svg>